<svg width="31" height="30" viewBox="0 0 31 30" fill="none" xmlns="http://www.w3.org/2000/svg">
<g clip-path="url(#clip0)">
<path d="M24.0837 16.9666C23.9235 16.5 23.8464 16.2682 23.8464 16.0984C23.8464 15.9286 23.9234 15.6968 24.0839 15.2297C24.2032 14.8812 24.3836 14.3545 23.9981 13.8429C23.8676 13.6691 23.7587 13.527 23.6673 13.4077C23.2693 12.8886 23.2693 12.8885 23.1428 12.2972C23.1404 12.286 23.1377 12.2737 23.1353 12.2622C23.2432 12.2309 23.3527 12.1942 23.4612 12.1489C23.6759 12.0577 23.8761 11.9372 24.0689 11.8068C24.1696 11.7386 24.2695 11.669 24.3684 11.5983C24.4518 11.5387 24.5325 11.4701 24.6276 11.4293C24.7865 11.3611 25.0193 11.3685 25.1706 11.4543C25.3603 11.5618 25.5321 11.7078 25.7136 11.8286C25.8968 11.9505 26.0869 12.0633 26.2899 12.1494C26.6005 12.2804 26.9087 12.3392 27.2066 12.3961C27.3407 12.4217 27.4674 12.4459 27.5862 12.4752C27.7005 12.5037 27.7283 12.5424 27.7496 12.6379C27.7928 12.8303 27.8266 12.989 27.8551 13.1227C28.0285 13.9366 28.0631 14.0105 28.5966 14.7064C28.686 14.8231 28.7925 14.9618 28.92 15.1316C28.9187 15.1899 28.8686 15.3361 28.8352 15.434C28.4339 16.6019 28.4339 16.7655 28.8349 17.9328C28.8686 18.0313 28.9187 18.1775 28.92 18.2358C28.7939 18.4035 28.6884 18.541 28.5995 18.6568C28.1348 19.2627 28.0474 19.3984 27.9192 19.9533H23.1312C23.135 19.9354 23.1391 19.9167 23.1427 19.8996C23.2692 19.3083 23.2692 19.3083 23.6673 18.789C23.7588 18.6696 23.8676 18.5277 23.9976 18.3546C24.3836 17.8422 24.2032 17.3155 24.0837 16.9666ZM30.395 20.2044C30.2854 20.047 30.1058 19.9532 29.9141 19.9532H29.14C29.2056 19.7921 29.3042 19.6636 29.5293 19.37C29.6204 19.2514 29.7283 19.1105 29.8573 18.9391C30.2428 18.4274 30.0628 17.9014 29.9435 17.5527C29.7832 17.0861 29.7061 16.8544 29.7061 16.6837C29.7061 16.5131 29.7832 16.2813 29.9437 15.8141C30.0628 15.466 30.2428 14.94 29.8579 14.429C29.7273 14.2551 29.6182 14.1129 29.5266 13.9934C29.128 13.4734 29.128 13.4734 29.0013 12.8786C28.9721 12.7414 28.9374 12.5785 28.8932 12.382C28.7733 11.8438 28.4101 11.473 27.8688 11.3378C27.718 11.3006 27.5697 11.2723 27.4264 11.2449C27.253 11.2118 27.0785 11.1799 26.9095 11.1284C26.7486 11.0794 26.601 11.0049 26.4589 10.9155C26.1782 10.739 25.9213 10.5047 25.6173 10.3681C25.1308 10.1496 24.472 10.1583 24.0079 10.4323C23.6684 10.6327 23.3719 10.9138 23.0063 11.0689C22.9156 11.1068 22.8173 11.1367 22.7158 11.1623C22.5377 10.9642 22.299 10.8239 22.0091 10.7534C21.8599 10.7166 21.7131 10.6883 21.5711 10.6609C21.3205 10.6127 21.0836 10.567 20.8867 10.484C20.6896 10.4004 20.4934 10.2627 20.2858 10.1168C20.1656 10.0324 20.0412 9.94503 19.9095 9.86277C19.4248 9.55884 18.6058 9.5589 18.122 9.86212C17.9892 9.94503 17.8648 10.0323 17.7447 10.1168C17.5371 10.2626 17.3409 10.4004 17.1451 10.4835C16.9469 10.567 16.7101 10.6126 16.4594 10.6609C16.3174 10.6882 16.1707 10.7165 16.0233 10.7529C15.4834 10.8844 15.1197 11.2535 14.9991 11.789C14.6437 11.7017 14.2749 11.7626 13.9437 11.9726C13.772 12.0811 13.6319 12.1719 13.5139 12.2484C13.0049 12.5781 13.0049 12.5781 12.3558 12.664C12.2108 12.6832 12.0386 12.7061 11.8338 12.7352C11.8104 12.6007 11.7859 12.4626 11.7535 12.3214C11.6251 11.7642 11.0459 11.185 10.4881 11.0566C10.3377 11.022 10.1899 10.9963 10.047 10.9714C9.79577 10.9276 9.55847 10.8862 9.3596 10.8057C9.1588 10.7243 8.95817 10.5882 8.74577 10.4439C8.62765 10.3637 8.50554 10.2808 8.37306 10.2003C7.89845 9.9158 7.3806 9.92054 6.91302 10.2143C6.73987 10.3238 6.59878 10.4154 6.48013 10.4923C5.97271 10.8215 5.97271 10.8215 5.32267 10.9074C5.17372 10.9272 4.99665 10.9506 4.78448 10.9808C4.14898 11.0683 3.90329 11.5681 3.7397 11.9009C3.52419 12.3436 3.41532 12.5617 3.29462 12.6824C3.17468 12.8022 2.95618 12.9118 2.51286 13.1286C2.18239 13.29 1.683 13.534 1.59206 14.1701C1.56136 14.3852 1.53786 14.5625 1.51812 14.7117C1.43222 15.3604 1.43222 15.3604 1.10239 15.8693C1.02587 15.9872 0.935109 16.1273 0.826242 16.2994C0.530812 16.7675 0.525656 17.2863 0.812062 17.7606C0.892218 17.8932 0.976593 18.0173 1.05816 18.1375C1.20101 18.3477 1.33589 18.5464 1.4161 18.7442C1.49638 18.9432 1.53792 19.1789 1.58187 19.4285C1.60741 19.5735 1.63384 19.7234 1.6687 19.8735C1.67497 19.9011 1.68224 19.9274 1.69003 19.9531H1.08593C0.89421 19.9531 0.714562 20.047 0.604992 20.2044C0.49548 20.3618 0.469874 20.5628 0.536495 20.7426L2.88001 27.0688C2.96515 27.2986 3.18435 27.4511 3.42944 27.4511H27.5705C27.8156 27.4511 28.0348 27.2986 28.12 27.0688L30.4635 20.7426C30.5301 20.5629 30.5045 20.3618 30.395 20.2044ZM16.1409 12.0517C16.1639 11.9486 16.1951 11.9171 16.3023 11.8911C16.4221 11.8615 16.5479 11.8373 16.6811 11.8116C16.98 11.7541 17.289 11.6945 17.6015 11.5628C17.9128 11.4307 18.1698 11.2503 18.4182 11.0758C18.5305 10.9969 18.6367 10.9223 18.7436 10.8556C18.8476 10.7904 19.1828 10.7904 19.288 10.8563C19.3938 10.9223 19.5 10.9969 19.6123 11.0758C19.8607 11.2503 20.1177 11.4307 20.4303 11.5633C20.7415 11.6944 21.0505 11.754 21.3494 11.8115C21.4826 11.8372 21.6084 11.8615 21.73 11.8915C21.8354 11.9171 21.8667 11.9486 21.89 12.0539C21.9338 12.248 21.968 12.4078 21.9967 12.5422C22.17 13.3521 22.2046 13.4259 22.7372 14.1206C22.8266 14.2372 22.9328 14.3758 23.0602 14.5455C23.0592 14.6045 23.0071 14.7569 22.9754 14.8494C22.5745 16.0166 22.5745 16.18 22.9752 17.3466C23.0071 17.4396 23.0593 17.5921 23.0602 17.6511C22.9329 17.8207 22.8267 17.9593 22.7373 18.0759C22.2046 18.7706 22.17 18.8444 21.9967 19.6543C21.978 19.742 21.9566 19.8418 21.9321 19.9531H18.8236C18.8392 19.8993 18.8526 19.8433 18.8612 19.7826C18.8918 19.5673 18.915 19.3899 18.9346 19.2406C19.0197 18.5924 19.0197 18.5924 19.3505 18.0826C19.4271 17.9646 19.5179 17.8245 19.6262 17.6535C19.9235 17.1851 19.9279 16.6657 19.6405 16.1945C19.559 16.0586 19.4727 15.9316 19.3893 15.8087C19.248 15.6008 19.1146 15.4044 19.0354 15.2091C18.9544 15.0085 18.913 14.7708 18.8691 14.5193C18.8442 14.3767 18.8186 14.2294 18.784 14.0781C18.6551 13.519 18.0747 12.9403 17.5208 12.8155C17.3676 12.7797 17.2174 12.7532 17.0721 12.7276C16.8232 12.6837 16.588 12.6422 16.3901 12.5624C16.2825 12.5188 16.1749 12.4592 16.0655 12.3913C16.0872 12.2914 16.1118 12.1792 16.1409 12.0517ZM11.829 18.0265C11.8596 17.8114 11.8831 17.634 11.9029 17.4848C11.9888 16.8356 11.9888 16.8356 12.3176 16.3277C12.3944 16.2093 12.4855 16.0685 12.594 15.8969C12.8899 15.4308 12.8956 14.9119 12.6083 14.4334C12.5295 14.3036 12.4464 14.1814 12.3662 14.0632C12.3201 13.9953 12.2751 13.9288 12.2321 13.8629C12.3345 13.849 12.4266 13.8368 12.5095 13.8258C13.3778 13.7109 13.4546 13.6831 14.1511 13.2319C14.2661 13.1574 14.4026 13.069 14.5708 12.9626C14.6592 12.9065 14.7082 12.9062 14.7981 12.9604C14.9025 13.0238 15.0073 13.095 15.1184 13.1704C15.372 13.3425 15.6342 13.5206 15.951 13.6489C16.2636 13.775 16.5712 13.8292 16.8687 13.8817C17.0043 13.9056 17.1325 13.9282 17.2587 13.9577C17.378 13.9846 17.6144 14.2211 17.6419 14.3403C17.6695 14.4609 17.6915 14.5871 17.7148 14.7207C17.7672 15.0213 17.8214 15.3321 17.9491 15.6485C18.0753 15.96 18.2506 16.218 18.42 16.4674C18.4978 16.5818 18.5712 16.6899 18.6379 16.8011C18.6929 16.8914 18.6928 16.9375 18.6365 17.0261C18.5306 17.1934 18.4421 17.33 18.3675 17.4449C17.9146 18.1428 17.8869 18.2196 17.7728 19.0882C17.7537 19.234 17.7309 19.4073 17.7012 19.6168C17.6594 19.6578 17.5144 19.7287 17.4267 19.7716C17.2833 19.8413 17.1643 19.8996 17.0588 19.9532H9.85015C9.96417 19.7293 10.0432 19.5967 10.1272 19.5125C10.2473 19.3924 10.4654 19.283 10.9058 19.0677C11.2168 18.9174 11.7372 18.666 11.829 18.0265ZM1.81694 16.9255C1.92277 16.7583 2.01124 16.6217 2.08571 16.5068C2.53718 15.8104 2.56495 15.7337 2.67991 14.8656C2.69919 14.7198 2.72216 14.5466 2.75204 14.3366C2.79388 14.2956 2.93884 14.2247 3.02743 14.1815C4.13802 13.6384 4.25357 13.5228 4.79228 12.4159C4.83827 12.3224 4.90653 12.1836 4.94714 12.1414C5.1572 12.1114 5.33052 12.0886 5.47624 12.0693C6.34583 11.9543 6.42253 11.9265 7.11786 11.4755C7.23341 11.4006 7.37081 11.3114 7.53804 11.2056C7.62821 11.1489 7.67597 11.1488 7.76743 11.2037C7.87179 11.2671 7.97655 11.3382 8.08747 11.4135C8.34118 11.5857 8.60351 11.7638 8.91956 11.8919C9.23409 12.0193 9.54499 12.0735 9.84564 12.1259C9.97941 12.1492 10.1058 12.1712 10.2255 12.1987C10.3457 12.2264 10.5838 12.4644 10.6114 12.5841C10.639 12.7043 10.661 12.8306 10.6843 12.9644C10.7368 13.2649 10.791 13.5757 10.9185 13.8901C11.0465 14.2061 11.2246 14.4682 11.3968 14.7217C11.4722 14.8327 11.5434 14.9375 11.6052 15.0392C11.6613 15.1326 11.6612 15.1797 11.604 15.2699C11.4977 15.4381 11.4088 15.5753 11.3341 15.6907C10.8837 16.3861 10.8561 16.4628 10.7412 17.3311C10.722 17.4756 10.6993 17.6471 10.6689 17.8595C10.626 17.9015 10.4776 17.9731 10.3937 18.0137C9.28554 18.5555 9.17005 18.6711 8.62853 19.7798C8.60292 19.8319 8.57046 19.8976 8.53982 19.9533H3.10753C2.96984 19.8659 2.83003 19.6942 2.81093 19.6111C2.78251 19.4889 2.75995 19.3608 2.73605 19.2253C2.68355 18.9272 2.62923 18.6189 2.50261 18.305C2.37528 17.9909 2.19857 17.7307 2.02765 17.4791C1.95124 17.3666 1.87911 17.2603 1.81513 17.1546C1.7597 17.0627 1.76011 17.0155 1.81694 16.9255ZM28.1173 23.7024H12.855C12.5315 23.7024 12.2691 23.9648 12.2691 24.2883C12.2691 24.6119 12.5315 24.8743 12.855 24.8743H27.6832L27.1627 26.2793H3.83726L3.31677 24.8743H7.59165C7.91521 24.8743 8.17759 24.6119 8.17759 24.2883C8.17759 23.9648 7.91521 23.7024 7.59165 23.7024H2.88265L1.92786 21.1251H29.0721L28.1173 23.7024Z" fill="#5A95CC"/>
<path d="M7.35419 14.4307H7.35753C7.68108 14.4307 7.94183 14.1683 7.94183 13.8447C7.94183 13.5212 7.6778 13.2588 7.35425 13.2588C7.03069 13.2588 6.76831 13.5212 6.76831 13.8447C6.76831 14.1683 7.03063 14.4307 7.35419 14.4307Z" fill="#5A95CC"/>
<path d="M7.35742 15.8955C7.03387 15.8955 6.77148 16.1579 6.77148 16.4814C6.77148 16.805 7.03387 17.0674 7.35742 17.0674H7.36076C7.68432 17.0674 7.94506 16.805 7.94506 16.4814C7.94506 16.1579 7.68098 15.8955 7.35742 15.8955Z" fill="#5A95CC"/>
<path d="M15.1406 16.0898H15.1439C15.4674 16.0898 15.7282 15.8275 15.7282 15.5039C15.7282 15.1804 15.4642 14.918 15.1406 14.918C14.8171 14.918 14.5547 15.1804 14.5547 15.5039C14.5547 15.8275 14.817 16.0898 15.1406 16.0898Z" fill="#5A95CC"/>
<path d="M14.252 18.5889H14.2537C14.5772 18.5889 14.8387 18.3265 14.8387 18.0029C14.8387 17.6794 14.5756 17.417 14.252 17.417C13.9283 17.417 13.666 17.6794 13.666 18.0029C13.666 18.3265 13.9285 18.5889 14.252 18.5889Z" fill="#5A95CC"/>
<path d="M20.9719 15.3847H20.9752C21.2988 15.3847 21.5595 15.1224 21.5595 14.7988C21.5595 14.4753 21.2955 14.2129 20.9719 14.2129C20.6484 14.2129 20.386 14.4753 20.386 14.7988C20.3859 15.1224 20.6483 15.3847 20.9719 15.3847Z" fill="#5A95CC"/>
<path d="M4.89081 18.6055H4.89415C5.21771 18.6055 5.47845 18.3431 5.47845 18.0195C5.47845 17.696 5.21442 17.4336 4.89087 17.4336C4.56731 17.4336 4.30493 17.696 4.30493 18.0195C4.30493 18.3431 4.56726 18.6055 4.89081 18.6055Z" fill="#5A95CC"/>
<path d="M26.1157 15.0449H26.119C26.4426 15.0449 26.7033 14.7825 26.7033 14.459C26.7033 14.1354 26.4393 13.873 26.1157 13.873C25.7922 13.873 25.5298 14.1354 25.5298 14.459C25.5298 14.7825 25.7921 15.0449 26.1157 15.0449Z" fill="#5A95CC"/>
<path d="M25.709 18.1943C25.709 18.5179 25.9714 18.7803 26.2949 18.7803H26.2966C26.6201 18.7803 26.8817 18.5179 26.8817 18.1943C26.8817 17.8708 26.6185 17.6084 26.2949 17.6084C25.9712 17.6084 25.709 17.8708 25.709 18.1943Z" fill="#5A95CC"/>
<path d="M10.2242 24.874H10.2258C10.5494 24.874 10.8109 24.6116 10.8109 24.2881C10.8109 23.9645 10.5477 23.7021 10.2241 23.7021C9.90051 23.7021 9.63818 23.9645 9.63818 24.2881C9.63818 24.6116 9.90057 24.874 10.2242 24.874Z" fill="#5A95CC"/>
<path d="M19.0171 4.94193L19.0129 4.94697C18.5942 5.44865 18.5134 6.00945 18.5207 6.39657C18.5103 6.94501 18.6867 7.46158 19.018 7.85245L19.0203 7.85515C19.1362 7.99677 19.3045 8.07007 19.4741 8.07007C19.6046 8.07007 19.736 8.02671 19.8448 7.93759C20.0952 7.73269 20.1322 7.36355 19.9273 7.11312L19.9119 7.09478C19.7221 6.87077 19.6878 6.59937 19.6925 6.41111C19.6927 6.40144 19.6927 6.39171 19.6925 6.38204C19.6857 6.11105 19.7597 5.88089 19.9125 5.6979C19.921 5.68765 19.9279 5.67939 19.9307 5.67587L19.9352 5.67036C20.3521 5.1688 20.4326 4.60835 20.4252 4.2214C20.4326 3.83456 20.3521 3.27423 19.9353 2.77255L19.9314 2.76775C19.7305 2.51661 19.3642 2.47419 19.1112 2.67359C18.857 2.87392 18.8133 3.24236 19.0136 3.49648C19.0185 3.50269 19.0254 3.51113 19.034 3.52156C19.2238 3.7499 19.2581 4.02031 19.2535 4.20687C19.2532 4.21654 19.2532 4.22626 19.2535 4.23593C19.2581 4.42261 19.2238 4.69296 19.0341 4.92118C19.0272 4.92939 19.0216 4.9363 19.0171 4.94193Z" fill="#5A95CC"/>
<path d="M15.1526 4.23653C15.1586 4.50793 15.0825 4.74512 14.9325 4.92237L14.9103 4.94909C14.4929 5.45018 14.4125 6.01116 14.4199 6.39852C14.4095 6.94737 14.5852 7.46387 14.9154 7.85434L14.9178 7.85709C15.0337 7.99871 15.2019 8.07202 15.3716 8.07202C15.5021 8.07202 15.6335 8.02866 15.7423 7.93953C15.9927 7.73463 16.0297 7.36549 15.8247 7.11506L15.8101 7.09754C15.621 6.87401 15.587 6.60196 15.5916 6.41311C15.5919 6.40338 15.5919 6.39366 15.5916 6.38393C15.5849 6.11211 15.6586 5.88166 15.8107 5.69903C15.8158 5.69293 15.8202 5.68748 15.8241 5.68286L15.827 5.67946C16.1573 5.28911 16.3337 4.77248 16.3244 4.2234C16.3337 3.6745 16.1573 3.15793 15.8271 2.76752L15.8236 2.76336C15.6184 2.51411 15.25 2.47772 15.0001 2.68233C14.7497 2.88729 14.7129 3.25649 14.9178 3.50686L14.9324 3.52438C15.122 3.74844 15.1567 4.02114 15.1525 4.21034C15.1524 4.21912 15.1524 4.2278 15.1526 4.23653Z" fill="#5A95CC"/>
<path d="M10.8141 4.94279L10.8099 4.94777C10.3911 5.44933 10.3103 6.01031 10.3176 6.39762C10.3072 6.94635 10.4836 7.46297 10.8151 7.85379L10.8174 7.85648C10.9333 7.99793 11.1015 8.07111 11.271 8.07111C11.4016 8.07111 11.5331 8.02769 11.642 7.9384C11.8923 7.73332 11.929 7.36412 11.7239 7.11387L11.7088 7.09576C11.5189 6.87193 11.4847 6.60047 11.4893 6.41215C11.4896 6.40248 11.4896 6.39275 11.4893 6.38308C11.4826 6.11197 11.5566 5.88182 11.7094 5.699C11.7179 5.68881 11.7246 5.68066 11.7277 5.67668L11.7322 5.67117C12.149 5.16949 12.2294 4.60922 12.2221 4.22244C12.2294 3.83578 12.149 3.27562 11.7324 2.77383L11.7284 2.76902C11.5276 2.51777 11.1614 2.47506 10.9083 2.67439C10.654 2.87455 10.6101 3.24293 10.8102 3.49723C10.8152 3.50349 10.8221 3.51199 10.8309 3.5226C10.9833 3.70605 11.0571 3.93662 11.0504 4.20791C11.0501 4.21758 11.0501 4.2273 11.0504 4.23697C11.055 4.42353 11.0206 4.69389 10.8309 4.92223C10.8242 4.93037 10.8186 4.93723 10.8141 4.94279Z" fill="#5A95CC"/>
</g>
<defs>
<clipPath id="clip0">
<rect width="30" height="30" fill="white" transform="translate(0.5)"/>
</clipPath>
</defs>
</svg>
