<svg width="31" height="30" viewBox="0 0 31 30" fill="none" xmlns="http://www.w3.org/2000/svg">
<g clip-path="url(#clip0)">
<path d="M21.7443 10.1109L21.4233 9.05438C21.0155 7.85426 19.7121 7.21194 18.5119 7.61969C17.8368 7.84907 17.3066 8.37926 17.0772 9.05438L16.7562 10.1109C16.4861 11.0019 16.4294 11.9439 16.5907 12.8609C16.7379 13.6329 17.228 14.2961 17.9227 14.6634L17.5632 22.6999C17.5151 23.1484 17.6606 23.5963 17.9632 23.9309C18.6141 24.6428 19.7188 24.6923 20.4307 24.0414C20.4692 24.0063 20.5061 23.9694 20.5412 23.9309C20.8371 23.6058 20.9824 23.1711 20.9413 22.7334L20.5797 14.6624C21.2736 14.2949 21.7629 13.6321 21.9098 12.8609C22.0711 11.9439 22.0144 11.0019 21.7443 10.1109ZM20.9247 12.6869C20.8165 13.2415 20.4212 13.6966 19.8872 13.8814C19.6846 13.9576 19.554 14.1556 19.5637 14.3719L19.9437 22.8124C19.9612 22.9779 19.9066 23.143 19.7937 23.2654C19.4927 23.5634 19.0078 23.5634 18.7067 23.2654C18.5882 23.1331 18.5344 22.9551 18.5597 22.7794L18.9367 14.3719C18.9465 14.1556 18.8159 13.9576 18.6132 13.8814C18.0792 13.6966 17.684 13.2415 17.5757 12.6869C17.442 11.9256 17.4891 11.1436 17.7132 10.4039L18.0342 9.34688C18.2826 8.67532 19.0284 8.33226 19.7 8.58063C20.0551 8.71194 20.3349 8.99188 20.4662 9.34688L20.7873 10.4039C21.0111 11.1436 21.0583 11.9256 20.9247 12.6869Z" fill="#5A95CC"/>
<path d="M14 7.5C13.7239 7.5 13.5 7.72388 13.5 8V12.293L12.1465 13.6465C12.0464 13.7463 11.9931 13.8838 12 14.025L12.4375 22.775C12.4479 22.9637 12.3794 23.1483 12.2485 23.2845C11.9748 23.5606 11.5291 23.5626 11.2529 23.2889C11.2514 23.2874 11.2499 23.2859 11.2485 23.2845C11.1175 23.1483 11.0491 22.9637 11.0595 22.775L11.5 14.025C11.507 13.8839 11.4539 13.7464 11.354 13.6465L10 12.293V8C10 7.72388 9.77613 7.5 9.5 7.5C9.22388 7.5 9 7.72388 9 8V12.5C9 12.6326 9.05275 12.7598 9.1465 12.8535L10.4895 14.197L10.063 22.7265C10.0176 23.6582 10.7361 24.4503 11.6678 24.4957C12.5995 24.5411 13.3916 23.8226 13.437 22.8909C13.4397 22.8361 13.4397 22.7813 13.437 22.7266L13.0105 14.1971L14.3535 12.8536C14.4473 12.7598 14.5 12.6327 14.5 12.5001V8.00006C14.5 7.72388 14.2761 7.5 14 7.5Z" fill="#5A95CC"/>
<path d="M11 7.5C10.7239 7.5 10.5 7.72387 10.5 8V12C10.5 12.2761 10.7239 12.5 11 12.5C11.2761 12.5 11.5 12.2761 11.5 12V8C11.5 7.72387 11.2761 7.5 11 7.5Z" fill="#5A95CC"/>
<path d="M12.5 7.5C12.2239 7.5 12 7.72387 12 8V12C12 12.2761 12.2239 12.5 12.5 12.5C12.7761 12.5 13 12.2761 13 12V8C13 7.72387 12.7761 7.5 12.5 7.5Z" fill="#5A95CC"/>
<path d="M15.5 0C7.21575 0 0.5 6.71575 0.5 15C0.5 23.2843 7.21575 30 15.5 30C23.7843 30 30.5 23.2843 30.5 15C30.4906 6.71963 23.7804 0.009375 15.5 0ZM15.5 29C7.768 29 1.5 22.732 1.5 15C1.5 7.268 7.768 1 15.5 1C23.232 1 29.5 7.268 29.5 15C29.4912 22.7283 23.2283 28.9912 15.5 29Z" fill="#5A95CC"/>
<path d="M17.1228 24.3851C17.096 24.1102 16.8515 23.9092 16.5766 23.936C16.5702 23.9366 16.5637 23.9374 16.5573 23.9382L16.5593 23.9377C15.8553 24.0195 15.1442 24.0195 14.4403 23.9377C14.1659 23.9056 13.9175 24.1019 13.8853 24.3762C13.8531 24.6506 14.0494 24.8991 14.3238 24.9312C15.1045 25.0224 15.8931 25.0224 16.6738 24.9312C16.9486 24.9045 17.1497 24.6599 17.1228 24.3851Z" fill="#5A95CC"/>
<path d="M23.1496 8.5576C22.9722 8.34604 22.6568 8.31835 22.4453 8.49585C22.4446 8.49642 22.4439 8.49704 22.4432 8.4976C22.2321 8.6756 22.2052 8.99098 22.3832 9.2021C25.3978 12.7809 25.1672 18.0727 21.8527 21.3756C21.657 21.5705 21.6565 21.8872 21.8514 22.0829C22.0463 22.2785 22.363 22.279 22.5587 22.0841C26.2422 18.4145 26.4991 12.5344 23.1496 8.5576Z" fill="#5A95CC"/>
<path d="M17.8586 5.2788C15.9045 4.81049 13.8551 4.93636 11.9731 5.6403C11.7146 5.73748 11.5839 6.02586 11.6811 6.2843C11.7543 6.47911 11.9406 6.60805 12.1486 6.60823C12.2084 6.60792 12.2677 6.59698 12.3236 6.5758C14.0184 5.94198 15.8639 5.8288 17.6236 6.2508C17.892 6.31567 18.1622 6.15073 18.2271 5.8823C18.2919 5.61386 18.127 5.34367 17.8586 5.2788Z" fill="#5A95CC"/>
<path d="M9.12471 21.3507C7.43915 19.6681 6.49447 17.3825 6.50022 15.0007C6.49528 13.0979 7.09803 11.2431 8.22071 9.70674C8.38665 9.48599 8.34221 9.17255 8.12146 9.00661C7.90071 8.84067 7.58728 8.88511 7.42134 9.10586C7.4184 9.1098 7.41553 9.11374 7.41271 9.11774C4.52191 13.092 4.94728 18.5777 8.41621 22.0587C8.61171 22.2544 8.92884 22.2545 9.12446 22.059C9.32009 21.8635 9.32021 21.5464 9.12471 21.3507Z" fill="#5A95CC"/>
</g>
<defs>
<clipPath id="clip0">
<rect width="30" height="30" fill="#5A95CC" transform="translate(0.5)"/>
</clipPath>
</defs>
</svg>
