<svg width="24" height="25" viewBox="0 0 24 25" fill="none" xmlns="http://www.w3.org/2000/svg">
<path d="M3.2002 1.59961V0.599609C2.64791 0.599609 2.2002 1.04732 2.2002 1.59961L3.2002 1.59961ZM22.4002 1.59961H23.4002C23.4002 1.04732 22.9525 0.599609 22.4002 0.599609V1.59961ZM22.4002 23.9996L21.953 24.894C22.263 25.049 22.6311 25.0325 22.9259 24.8503C23.2207 24.6681 23.4002 24.3462 23.4002 23.9996H22.4002ZM19.2002 22.3996L19.6474 21.5052C19.3659 21.3644 19.0345 21.3644 18.753 21.5052L19.2002 22.3996ZM16.0002 23.9996L15.553 24.894C15.8345 25.0348 16.1659 25.0348 16.4474 24.894L16.0002 23.9996ZM12.8002 22.3996L13.2474 21.5052C12.9659 21.3644 12.6345 21.3644 12.353 21.5052L12.8002 22.3996ZM9.60019 23.9996L9.15298 24.894C9.43451 25.0348 9.76588 25.0348 10.0474 24.894L9.60019 23.9996ZM3.2002 23.9996H2.2002C2.2002 24.3462 2.37965 24.6681 2.67446 24.8503C2.96928 25.0325 3.33742 25.049 3.64741 24.894L3.2002 23.9996ZM6.4002 22.3996L6.84741 21.5052C6.56588 21.3644 6.23451 21.3644 5.95298 21.5052L6.4002 22.3996ZM3.2002 2.59961H22.4002V0.599609H3.2002V2.59961ZM21.4002 1.59961V23.9996H23.4002V1.59961H21.4002ZM22.8474 23.1052L19.6474 21.5052L18.753 23.294L21.953 24.894L22.8474 23.1052ZM18.753 21.5052L15.553 23.1052L16.4474 24.894L19.6474 23.294L18.753 21.5052ZM16.4474 23.1052L13.2474 21.5052L12.353 23.294L15.553 24.894L16.4474 23.1052ZM12.353 21.5052L9.15298 23.1052L10.0474 24.894L13.2474 23.294L12.353 21.5052ZM4.2002 23.9996V1.59961H2.2002V23.9996H4.2002ZM10.0474 23.1052L6.84741 21.5052L5.95298 23.294L9.15298 24.894L10.0474 23.1052ZM5.95298 21.5052L2.75298 23.1052L3.64741 24.894L6.84741 23.294L5.95298 21.5052ZM7.2002 8.99961H10.4002V6.99961H7.2002V8.99961ZM13.6002 8.99961H18.4002V6.99961H13.6002V8.99961ZM7.2002 13.7996H10.4002V11.7996H7.2002V13.7996ZM13.6002 13.7996H18.4002V11.7996H13.6002V13.7996ZM13.6002 18.5996H18.4002V16.5996H13.6002V18.5996Z" fill="#9A9590"/>
</svg>
