<svg width="250" height="200" viewBox="0 0 250 200" fill="none" xmlns="http://www.w3.org/2000/svg">
<path fill-rule="evenodd" clip-rule="evenodd" d="M93 135H176C179.866 135 183 131.866 183 128C183 124.134 179.866 121 176 121C176 121 170 117.866 170 114C170 110.134 173.952 107 178.826 107H189C192.866 107 196 103.866 196 100C196 96.134 192.866 93 189 93H167C170.866 93 174 89.866 174 86C174 82.134 170.866 79 167 79H207C210.866 79 214 75.866 214 72C214 68.134 210.866 65 207 65H109C105.134 65 102 68.134 102 72C102 75.866 105.134 79 109 79H69C65.134 79 62 82.134 62 86C62 89.866 65.134 93 69 93H94C97.866 93 101 96.134 101 100C101 103.866 97.866 107 94 107H54C50.134 107 47 110.134 47 114C47 117.866 50.134 121 54 121H93C89.134 121 86 124.134 86 128C86 131.866 89.134 135 93 135ZM200 100C200 103.866 203.134 107 207 107C210.866 107 214 103.866 214 100C214 96.134 210.866 93 207 93C203.134 93 200 96.134 200 100Z" fill="#DFEDF2"/>
<path fill-rule="evenodd" clip-rule="evenodd" d="M153.672 63.9997L162.974 131.842L163.809 138.649C164.079 140.841 162.519 142.837 160.327 143.106L101.766 150.297C99.5738 150.566 97.578 149.007 97.3088 146.814L88.2931 73.3865C88.1584 72.2901 88.9381 71.2922 90.0344 71.1576C90.0413 71.1568 90.0483 71.156 90.0552 71.1552L94.9136 70.6102M98.8421 70.1695L103.429 69.655L98.8421 70.1695Z" fill="white"/>
<path d="M154.91 63.8299C154.816 63.1459 154.186 62.6675 153.502 62.7613C152.818 62.8551 152.34 63.4855 152.433 64.1695L154.91 63.8299ZM162.974 131.842L164.214 131.69L164.213 131.681L164.212 131.673L162.974 131.842ZM163.809 138.649L162.569 138.801L163.809 138.649ZM160.327 143.106L160.174 141.866L160.327 143.106ZM101.766 150.297L101.919 151.537L101.766 150.297ZM97.3088 146.814L98.5495 146.662L97.3088 146.814ZM88.2931 73.3865L89.5337 73.2341L88.2931 73.3865ZM90.0552 71.1552L89.9159 69.913L90.0552 71.1552ZM95.0529 71.8524C95.739 71.7755 96.2327 71.1569 96.1558 70.4709C96.0788 69.7848 95.4603 69.291 94.7742 69.368L95.0529 71.8524ZM152.433 64.1695L161.735 132.012L164.212 131.673L154.91 63.8299L152.433 64.1695ZM161.733 131.995L162.569 138.801L165.05 138.496L164.214 131.69L161.733 131.995ZM162.569 138.801C162.754 140.309 161.682 141.681 160.174 141.866L160.479 144.347C163.357 143.994 165.403 141.374 165.05 138.496L162.569 138.801ZM160.174 141.866L101.614 149.056L101.919 151.537L160.479 144.347L160.174 141.866ZM101.614 149.056C100.107 149.241 98.7346 148.169 98.5495 146.662L96.0681 146.966C96.4215 149.844 99.0409 151.891 101.919 151.537L101.614 149.056ZM98.5495 146.662L89.5337 73.2341L87.0524 73.5388L96.0681 146.966L98.5495 146.662ZM89.5337 73.2341C89.4833 72.823 89.7756 72.4488 90.1867 72.3983L89.8821 69.9169C88.1005 70.1357 86.8336 71.7572 87.0524 73.5388L89.5337 73.2341ZM90.1867 72.3983C90.1893 72.398 90.1919 72.3977 90.1945 72.3974L89.9159 69.913C89.9046 69.9142 89.8933 69.9156 89.8821 69.9169L90.1867 72.3983ZM90.1945 72.3974L95.0529 71.8524L94.7742 69.368L89.9159 69.913L90.1945 72.3974ZM98.9814 71.4117L103.568 70.8972L103.29 68.4128L98.7028 68.9273L98.9814 71.4117ZM103.29 68.4128L98.7028 68.9273L98.9814 71.4117L103.568 70.8972L103.29 68.4128Z" fill="#5A95CC"/>
<path fill-rule="evenodd" clip-rule="evenodd" d="M151.14 68.2696L159.56 129.753L160.317 135.922C160.561 137.909 159.167 139.715 157.204 139.956L104.762 146.395C102.798 146.636 101.008 145.221 100.764 143.234L92.6143 76.8572C92.4797 75.7608 93.2594 74.7629 94.3557 74.6283L100.843 73.8318" fill="#DFEDF2"/>
<path d="M107.922 54C107.922 52.4812 109.153 51.25 110.672 51.25H156.229C156.958 51.25 157.657 51.5395 158.173 52.0549L171.616 65.4898C172.132 66.0056 172.422 66.7053 172.422 67.4349V130C172.422 131.519 171.191 132.75 169.672 132.75H110.672C109.153 132.75 107.922 131.519 107.922 130V54Z" fill="white" stroke="#5A95CC" stroke-width="2.5"/>
<path d="M156.672 52.4023V63.9995C156.672 65.6564 158.015 66.9995 159.672 66.9995H167.605" stroke="#5A95CC" stroke-width="2.5" stroke-linecap="round" stroke-linejoin="round"/>
<path d="M118.672 64.5C117.291 64.5 116.172 65.6193 116.172 67H118.672V64.5ZM144.672 64.5H118.672V67H144.672V64.5ZM147.172 67C147.172 65.6193 146.053 64.5 144.672 64.5V67H147.172ZM144.672 69.5C146.053 69.5 147.172 68.3807 147.172 67H144.672V69.5ZM118.672 69.5H144.672V67H118.672V69.5ZM116.172 67C116.172 68.3807 117.291 69.5 118.672 69.5V67H116.172ZM118.672 76.5C117.291 76.5 116.172 77.6193 116.172 79H118.672V76.5ZM161.672 76.5H118.672V79H161.672V76.5ZM164.172 79C164.172 77.6193 163.053 76.5 161.672 76.5V79H164.172ZM161.672 81.5C163.053 81.5 164.172 80.3807 164.172 79H161.672V81.5ZM118.672 81.5H161.672V79H118.672V81.5ZM116.172 79C116.172 80.3807 117.291 81.5 118.672 81.5V79H116.172ZM118.672 92V89.5C117.291 89.5 116.172 90.6193 116.172 92H118.672ZM118.672 92H116.172C116.172 93.3807 117.291 94.5 118.672 94.5V92ZM161.672 92H118.672V94.5H161.672V92ZM161.672 92V94.5C163.053 94.5 164.172 93.3807 164.172 92H161.672ZM161.672 92H164.172C164.172 90.6193 163.053 89.5 161.672 89.5V92ZM118.672 92H161.672V89.5H118.672V92ZM118.672 102.5C117.291 102.5 116.172 103.619 116.172 105H118.672V102.5ZM161.672 102.5H118.672V105H161.672V102.5ZM164.172 105C164.172 103.619 163.053 102.5 161.672 102.5V105H164.172ZM161.672 107.5C163.053 107.5 164.172 106.381 164.172 105H161.672V107.5ZM118.672 107.5H161.672V105H118.672V107.5ZM116.172 105C116.172 106.381 117.291 107.5 118.672 107.5V105H116.172ZM118.672 118V115.5C117.291 115.5 116.172 116.619 116.172 118H118.672ZM118.672 118H116.172C116.172 119.381 117.291 120.5 118.672 120.5V118ZM144.672 118H118.672V120.5H144.672V118ZM144.672 118V120.5C146.053 120.5 147.172 119.381 147.172 118H144.672ZM144.672 118H147.172C147.172 116.619 146.053 115.5 144.672 115.5V118ZM118.672 118H144.672V115.5H118.672V118Z" fill="#C1E5F9"/>
</svg>
