<svg width="24" height="24" viewBox="0 0 24 24" fill="none" xmlns="http://www.w3.org/2000/svg">
<path d="M0.799805 23.2H0.0498047V23.95H0.799805V23.2ZM10.3998 8.8L10.9998 8.35C10.8538 8.15528 10.6223 8.04353 10.379 8.05029C10.1357 8.05704 9.91078 8.18145 9.77577 8.38397L10.3998 8.8ZM15.1998 15.2L14.5998 15.65C14.7433 15.8413 14.9694 15.9527 15.2085 15.9499C15.4476 15.9472 15.6711 15.8305 15.8101 15.6359L15.1998 15.2ZM0.0498047 0V23.2H1.5498V0H0.0498047ZM0.799805 23.95H23.9998V22.45H0.799805V23.95ZM4.62384 18.816L11.0238 9.21602L9.77577 8.38397L3.37577 17.984L4.62384 18.816ZM9.7998 9.25L14.5998 15.65L15.7998 14.75L10.9998 8.35L9.7998 9.25ZM15.8101 15.6359L23.8101 4.43593L22.5895 3.56407L14.5895 14.7641L15.8101 15.6359Z" fill="#9A9590"/>
</svg>
