<svg width="24" height="24" viewBox="0 0 24 24" fill="none" xmlns="http://www.w3.org/2000/svg">
<path d="M8.80005 0.799805H2.40005C1.51639 0.799805 0.800049 1.51615 0.800049 2.3998V8.7998C0.800049 9.68346 1.51639 10.3998 2.40005 10.3998H8.80005C9.6837 10.3998 10.4 9.68346 10.4 8.7998V2.3998C10.4 1.51615 9.6837 0.799805 8.80005 0.799805Z" stroke="#9A9590" stroke-width="1.5"/>
<path d="M21.6 0.799805H15.2C14.3164 0.799805 13.6 1.51615 13.6 2.3998V8.7998C13.6 9.68346 14.3164 10.3998 15.2 10.3998H21.6C22.4837 10.3998 23.2 9.68346 23.2 8.7998V2.3998C23.2 1.51615 22.4837 0.799805 21.6 0.799805Z" stroke="#9A9590" stroke-width="1.5"/>
<path d="M21.6 13.5998H15.2C14.3164 13.5998 13.6 14.3161 13.6 15.1998V21.5998C13.6 22.4835 14.3164 23.1998 15.2 23.1998H21.6C22.4837 23.1998 23.2 22.4835 23.2 21.5998V15.1998C23.2 14.3161 22.4837 13.5998 21.6 13.5998Z" stroke="#9A9590" stroke-width="1.5"/>
<path d="M8.80005 13.5998H2.40005C1.51639 13.5998 0.800049 14.3161 0.800049 15.1998V21.5998C0.800049 22.4835 1.51639 23.1998 2.40005 23.1998H8.80005C9.6837 23.1998 10.4 22.4835 10.4 21.5998V15.1998C10.4 14.3161 9.6837 13.5998 8.80005 13.5998Z" stroke="#9A9590" stroke-width="1.5"/>
</svg>
