<svg width="38" height="38" viewBox="0 0 38 38" fill="none" xmlns="http://www.w3.org/2000/svg">
<g clip-path="url(#clip0)" filter="url(#filter0_d)">
<path d="M28.4831 0C25.6398 0 23.2923 2.16299 22.9988 4.93008H19.1655C18.8419 4.93008 18.5795 5.1924 18.5795 5.51602C18.5795 5.83963 18.8419 6.10195 19.1655 6.10195H27.0686L23.6296 9.54223C22.9913 9.90029 21.9278 9.89156 21.3143 9.51352C20.3053 8.89295 18.7259 8.89307 17.7191 9.51352C17.0881 9.90164 15.9811 9.90158 15.3505 9.51381C14.6982 9.1118 13.8059 8.97047 12.9838 9.08918L10.7913 6.10201H13.9037C14.2274 6.10201 14.4897 5.83969 14.4897 5.51607C14.4897 5.19246 14.2274 4.93014 13.9037 4.93014H9.93115L6.78086 0.63791C6.58931 0.377051 6.22269 0.320684 5.96178 0.512227C5.70092 0.703711 5.64461 1.07039 5.83609 1.33131L8.4775 4.93008H4.58617C4.34922 4.93008 4.13558 5.07281 4.04488 5.29172C3.95418 5.51062 4.00428 5.76264 4.1718 5.93021L8.66494 10.4248C8.6708 10.4307 8.67642 10.4368 8.68258 10.4425L12.4559 14.217L13.6372 16.9865C13.9554 17.7324 14.3583 18.1947 15.3819 18.1947H15.9487V25.0619L10.8306 28.9474C10.6302 29.0995 10.5493 29.3626 10.6295 29.601C10.7097 29.8395 10.9333 30.0001 11.1849 30.0001H21.8827C22.1342 30.0001 22.3577 29.8395 22.438 29.601C22.5183 29.3626 22.4374 29.0996 22.2371 28.9475L17.1205 25.062V18.1947H17.6873C18.711 18.1947 19.1138 17.7324 19.432 16.9865L20.6133 14.2171L24.3866 10.4426C24.3927 10.4369 24.3984 10.4308 24.4043 10.4248L25.0187 9.81018C25.9961 10.6028 27.2059 11.0338 28.483 11.0338C31.5251 11.0338 34.0001 8.55855 34.0001 5.51607C34.0002 2.47447 31.5253 0 28.4831 0V0ZM9.43961 9.54223L6.00045 6.10195H9.33771L11.8156 9.47795C11.7951 9.48979 11.7745 9.50144 11.7545 9.51375C11.1414 9.89156 10.0779 9.90029 9.43961 9.54223ZM20.1423 28.8281H12.9258L16.5346 26.0884L20.1423 28.8281ZM18.3542 16.5267C18.1623 16.9764 18.1 17.0228 17.6873 17.0228H15.382C14.9693 17.0228 14.907 16.9764 14.7152 16.5267L13.8374 14.4688H19.2319L18.3542 16.5267ZM19.8761 13.297H13.1932L10.863 10.9661C11.4098 10.9264 11.9411 10.7753 12.3688 10.5117C12.9999 10.1235 14.106 10.1234 14.7362 10.5117C15.7446 11.1319 17.3246 11.1318 18.3335 10.5114C18.9632 10.1234 20.0693 10.1235 20.7 10.5114C21.128 10.7751 21.6593 10.9264 22.2062 10.9661L19.8761 13.297ZM24.1789 4.93008C24.2819 4.16965 24.583 3.47168 25.0274 2.88855L27.0686 4.93008H24.1789ZM27.8972 9.82225C27.1511 9.72229 26.4504 9.43266 25.8529 8.9758L27.8972 6.93094V9.82225ZM27.8972 4.10133L25.8561 2.05998C26.4391 1.61566 27.137 1.31467 27.8972 1.21172V4.10133ZM32.7883 4.93008H29.8976L31.9397 2.88768C32.3846 3.47098 32.685 4.16959 32.7883 4.93008ZM29.069 1.21248C29.8293 1.31543 30.5277 1.61508 31.1109 2.05928L29.069 4.10133V1.21248ZM29.069 9.82125V6.93076L31.1108 8.97275C30.5275 9.41707 29.8295 9.71824 29.069 9.82125ZM31.9397 8.14435L29.8976 6.10195H32.7883C32.685 6.86256 32.3844 7.56111 31.9397 8.14435Z" fill="#5A95CC"/>
<path d="M16.5346 6.10156H16.5379C16.8616 6.10156 17.1222 5.83924 17.1222 5.51562C17.1222 5.19201 16.8583 4.92969 16.5347 4.92969C16.2111 4.92969 15.9487 5.19201 15.9487 5.51562C15.9487 5.83924 16.211 6.10156 16.5346 6.10156Z" fill="#5A95CC"/>
</g>
<defs>
<filter id="filter0_d" x="0" y="0" width="38" height="38" filterUnits="userSpaceOnUse" color-interpolation-filters="sRGB">
<feFlood flood-opacity="0" result="BackgroundImageFix"/>
<feColorMatrix in="SourceAlpha" type="matrix" values="0 0 0 0 0 0 0 0 0 0 0 0 0 0 0 0 0 0 127 0" result="hardAlpha"/>
<feOffset dy="4"/>
<feGaussianBlur stdDeviation="2"/>
<feComposite in2="hardAlpha" operator="out"/>
<feColorMatrix type="matrix" values="0 0 0 0 0 0 0 0 0 0 0 0 0 0 0 0 0 0 0.25 0"/>
<feBlend mode="normal" in2="BackgroundImageFix" result="effect1_dropShadow"/>
<feBlend mode="normal" in="SourceGraphic" in2="effect1_dropShadow" result="shape"/>
</filter>
<clipPath id="clip0">
<rect width="30" height="30" fill="white" transform="translate(4)"/>
</clipPath>
</defs>
</svg>
