<svg width="34" height="42" viewBox="0 0 34 42" fill="none" xmlns="http://www.w3.org/2000/svg">
<path d="M29.5 41.833H4.50001C2.19882 41.833 0.333344 39.9676 0.333344 37.6664V4.33303C0.333344 2.03185 2.19882 0.166366 4.50001 0.166366H19.0833C19.102 0.163946 19.1209 0.163946 19.1396 0.166366H19.1521C19.1718 0.172529 19.192 0.176716 19.2125 0.178866C19.3962 0.190644 19.5776 0.226363 19.7521 0.285116H19.7833H19.8146H19.8396C19.878 0.312045 19.9143 0.342001 19.9479 0.3747C20.1749 0.475582 20.3817 0.616751 20.5583 0.791366L33.0583 13.2914C33.233 13.468 33.3741 13.6748 33.475 13.9018C33.4938 13.9476 33.5083 13.9914 33.5229 14.0393L33.5438 14.0976C33.6019 14.2713 33.6363 14.4522 33.6458 14.6351C33.6477 14.6559 33.6526 14.6762 33.6604 14.6955V14.708C33.6638 14.7217 33.6659 14.7356 33.6667 14.7497V37.6664C33.6667 38.7714 33.2277 39.8312 32.4463 40.6126C31.6649 41.3941 30.6051 41.833 29.5 41.833ZM19.0833 4.33303V14.7497H29.5L19.0833 4.33303Z" fill="#5A95CC"/>
</svg>
