<svg width="24" height="24" viewBox="0 0 24 24" fill="none" xmlns="http://www.w3.org/2000/svg">
<path d="M7.2 11.2425H6.45V12.7425H7.2V11.2425ZM16.8 12.7425H17.55V11.2425H16.8V12.7425ZM7.2 16.0498H6.45V17.5498H7.2V16.0498ZM16.8 17.5498H17.55V16.0498H16.8V17.5498ZM7.2 6.44561H6.45V7.94561H7.2V6.44561ZM16.8 7.94561H17.55V6.44561H16.8V7.94561ZM21.6 5.5998H22.35V5.28914L22.1303 5.06947L21.6 5.5998ZM16.8 0.799805L17.3303 0.269475L17.1107 0.0498047H16.8V0.799805ZM7.2 12.7425H16.8V11.2425H7.2V12.7425ZM7.2 17.5498H16.8V16.0498H7.2V17.5498ZM7.2 7.94561H16.8V6.44561H7.2V7.94561ZM20 22.4498H4V23.9498H20V22.4498ZM3.15 21.5998V2.39981H1.65V21.5998H3.15ZM20.85 5.5998V21.5998H22.35V5.5998H20.85ZM4 1.5498H16.8V0.0498047H4V1.5498ZM16.2697 1.33013L21.0697 6.13014L22.1303 5.06947L17.3303 0.269475L16.2697 1.33013ZM4 22.4498C3.53056 22.4498 3.15 22.0692 3.15 21.5998H1.65C1.65 22.8977 2.70213 23.9498 4 23.9498V22.4498ZM20 23.9498C21.2979 23.9498 22.35 22.8977 22.35 21.5998H20.85C20.85 22.0692 20.4694 22.4498 20 22.4498V23.9498ZM3.15 2.39981C3.15 1.93036 3.53056 1.5498 4 1.5498V0.0498047C2.70213 0.0498047 1.65 1.10194 1.65 2.39981H3.15Z" fill="#9A9590"/>
</svg>
