<svg width="53" height="59" viewBox="0 0 53 59" fill="none" xmlns="http://www.w3.org/2000/svg">
<path fill-rule="evenodd" clip-rule="evenodd" d="M21.6079 48.0385L16.0886 33.1773C16.0886 33.1773 5.17127 32.7708 2.49408 23.2083C-0.183212 13.6457 8.73885 8.69881 12.0355 8.22872C15.3321 7.75863 19.6784 7.99022 21.6079 8.56914C21.5986 8.53206 23.1099 1.43455 32.5965 2.0362C39.7017 3.7279 40.2542 8.32362 40.2542 8.32362C40.2542 8.32362 45.8279 8.01452 47.362 13.9572C48.985 20.2446 39.9288 23.1162 39.9288 23.1162C39.9288 23.1162 45.0969 34.8149 45.6382 38.2934C43.0724 35.9436 39.7823 34.5311 36.1967 34.5311C28.9127 34.5311 22.8474 40.3604 21.6079 48.0385Z" fill="white" stroke="#5D3604" stroke-width="3" stroke-miterlimit="1.5" stroke-linecap="round" stroke-linejoin="round"/>
<path fill-rule="evenodd" clip-rule="evenodd" d="M38.6422 40.3438C38.6185 40.4192 38.6292 40.5019 38.6713 40.568C38.7136 40.6341 38.7825 40.6762 38.8584 40.6823C44.585 41.1883 48.9893 46.171 49.5847 52.4723C49.6167 52.8456 49.4968 53.2158 49.2545 53.4925C49.0121 53.7691 48.6695 53.9266 48.3104 53.9266C44.559 53.9332 33.9013 53.9349 28.6531 53.9354C26.9963 53.9355 25.6269 52.58 25.933 50.9517C26.9656 45.4575 30.8222 41.2581 35.9798 40.7017C36.0266 40.697 36.0663 40.6643 36.0816 40.6179C36.0968 40.5716 36.0847 40.5203 36.0505 40.4867C35.8682 40.3066 35.5951 40.0377 35.408 39.8535C35.3688 39.8148 35.3537 39.7563 35.3692 39.7023C35.3847 39.6482 35.4281 39.6079 35.4813 39.5981C36.235 39.4593 38.2904 39.0806 38.9098 38.9666C38.9474 38.9596 38.9857 38.9739 39.0107 39.0041C39.0357 39.0342 39.0437 39.0758 39.0317 39.1137C38.9395 39.4051 38.7563 39.9835 38.6422 40.3438Z" fill="#CC915A"/>
<rect x="15.1458" y="56.0732" width="37.8542" height="2.92683" rx="1.46341" fill="#CC915A"/>
</svg>
