<svg width="168" height="59" viewBox="0 0 168 59" fill="none" xmlns="http://www.w3.org/2000/svg">
<path fill-rule="evenodd" clip-rule="evenodd" d="M21.6079 48.0385L16.0886 33.1773C16.0886 33.1773 5.17127 32.7708 2.49408 23.2083C-0.183212 13.6457 8.73885 8.69881 12.0355 8.22872C15.3321 7.75863 19.6784 7.99022 21.6079 8.56914C21.5986 8.53206 23.1099 1.43455 32.5965 2.0362C39.7017 3.7279 40.2542 8.32362 40.2542 8.32362C40.2542 8.32362 45.8279 8.01452 47.362 13.9572C48.985 20.2446 39.9288 23.1162 39.9288 23.1162C39.9288 23.1162 45.0969 34.8149 45.6382 38.2934C43.0724 35.9436 39.7823 34.5311 36.1967 34.5311C28.9127 34.5311 22.8474 40.3604 21.6079 48.0385Z" fill="white" stroke="#5D3604" stroke-width="3" stroke-miterlimit="1.5" stroke-linecap="round" stroke-linejoin="round"/>
<path fill-rule="evenodd" clip-rule="evenodd" d="M38.6423 40.3438C38.6185 40.4192 38.6292 40.5019 38.6714 40.568C38.7136 40.6341 38.7826 40.6762 38.8584 40.6823C44.585 41.1883 48.9893 46.171 49.5847 52.4723C49.6168 52.8456 49.4968 53.2158 49.2545 53.4925C49.0122 53.7691 48.6696 53.9266 48.3104 53.9266C44.559 53.9332 33.9013 53.9349 28.6531 53.9354C26.9963 53.9355 25.627 52.58 25.933 50.9517C26.9656 45.4575 30.8222 41.2581 35.9798 40.7017C36.0266 40.697 36.0663 40.6643 36.0816 40.6179C36.0968 40.5716 36.0847 40.5203 36.0506 40.4867C35.8682 40.3066 35.5951 40.0377 35.408 39.8535C35.3688 39.8148 35.3538 39.7563 35.3692 39.7023C35.3848 39.6482 35.4281 39.6079 35.4813 39.5981C36.235 39.4593 38.2905 39.0806 38.9098 38.9666C38.9474 38.9596 38.9858 38.9739 39.0107 39.0041C39.0357 39.0342 39.0438 39.0758 39.0317 39.1137C38.9395 39.4051 38.7564 39.9835 38.6423 40.3438Z" fill="#CC915A"/>
<rect x="15.1458" y="56.0732" width="37.8542" height="2.92683" rx="1.46341" fill="#CC915A"/>
<path d="M78.704 39V22.2H84.584C85.896 22.2 86.984 22.424 87.848 22.872C88.712 23.304 89.352 23.904 89.768 24.672C90.2 25.424 90.416 26.28 90.416 27.24C90.416 28.152 90.208 28.992 89.792 29.76C89.392 30.512 88.76 31.112 87.896 31.56C87.032 32.008 85.928 32.232 84.584 32.232H81.248V39H78.704ZM81.248 30.144H84.464C85.664 30.144 86.52 29.888 87.032 29.376C87.56 28.848 87.824 28.136 87.824 27.24C87.824 26.312 87.56 25.592 87.032 25.08C86.52 24.552 85.664 24.288 84.464 24.288H81.248V30.144ZM96.3503 39.288C95.3423 39.288 94.5103 39.12 93.8543 38.784C93.1983 38.448 92.7103 38.008 92.3903 37.464C92.0703 36.904 91.9103 36.296 91.9103 35.64C91.9103 34.488 92.3583 33.576 93.2543 32.904C94.1503 32.232 95.4303 31.896 97.0943 31.896H100.214V31.68C100.214 30.752 99.9583 30.056 99.4463 29.592C98.9503 29.128 98.3023 28.896 97.5023 28.896C96.7983 28.896 96.1823 29.072 95.6543 29.424C95.1423 29.76 94.8303 30.264 94.7183 30.936H92.1743C92.2543 30.072 92.5423 29.336 93.0383 28.728C93.5503 28.104 94.1903 27.632 94.9583 27.312C95.7423 26.976 96.5983 26.808 97.5263 26.808C99.1903 26.808 100.478 27.248 101.39 28.128C102.302 28.992 102.758 30.176 102.758 31.68V39H100.55L100.334 36.96C99.9983 37.616 99.5103 38.168 98.8703 38.616C98.2303 39.064 97.3903 39.288 96.3503 39.288ZM96.8543 37.224C97.5423 37.224 98.1183 37.064 98.5823 36.744C99.0623 36.408 99.4303 35.968 99.6863 35.424C99.9583 34.88 100.126 34.28 100.19 33.624H97.3583C96.3503 33.624 95.6303 33.8 95.1983 34.152C94.7823 34.504 94.5743 34.944 94.5743 35.472C94.5743 36.016 94.7743 36.448 95.1743 36.768C95.5903 37.072 96.1503 37.224 96.8543 37.224ZM105.865 39V27.096H108.145L108.361 29.352C108.777 28.568 109.353 27.952 110.089 27.504C110.841 27.04 111.745 26.808 112.801 26.808V29.472H112.105C111.401 29.472 110.769 29.592 110.209 29.832C109.665 30.056 109.225 30.448 108.889 31.008C108.569 31.552 108.409 32.312 108.409 33.288V39H105.865ZM120.362 39.288C119.194 39.288 118.154 39.032 117.242 38.52C116.346 37.992 115.642 37.264 115.13 36.336C114.618 35.408 114.362 34.328 114.362 33.096C114.362 31.848 114.61 30.752 115.106 29.808C115.618 28.864 116.322 28.128 117.218 27.6C118.13 27.072 119.186 26.808 120.386 26.808C121.554 26.808 122.57 27.072 123.434 27.6C124.298 28.112 124.97 28.8 125.45 29.664C125.93 30.528 126.17 31.48 126.17 32.52C126.17 32.68 126.162 32.856 126.146 33.048C126.146 33.224 126.138 33.424 126.122 33.648H116.858C116.938 34.8 117.314 35.68 117.986 36.288C118.674 36.88 119.466 37.176 120.362 37.176C121.082 37.176 121.682 37.016 122.162 36.696C122.658 36.36 123.026 35.912 123.266 35.352H125.81C125.49 36.472 124.85 37.408 123.89 38.16C122.946 38.912 121.77 39.288 120.362 39.288ZM120.362 28.896C119.514 28.896 118.762 29.152 118.106 29.664C117.45 30.16 117.05 30.912 116.906 31.92H123.626C123.578 30.992 123.25 30.256 122.642 29.712C122.034 29.168 121.274 28.896 120.362 28.896ZM133.701 39.288C132.197 39.288 130.957 38.92 129.981 38.184C129.005 37.448 128.445 36.472 128.301 35.256H130.869C130.997 35.8 131.301 36.272 131.781 36.672C132.261 37.056 132.893 37.248 133.677 37.248C134.445 37.248 135.005 37.088 135.357 36.768C135.709 36.448 135.885 36.08 135.885 35.664C135.885 35.056 135.637 34.648 135.141 34.44C134.661 34.216 133.989 34.016 133.125 33.84C132.453 33.696 131.781 33.504 131.109 33.264C130.453 33.024 129.901 32.688 129.453 32.256C129.021 31.808 128.805 31.208 128.805 30.456C128.805 29.416 129.205 28.552 130.005 27.864C130.805 27.16 131.925 26.808 133.365 26.808C134.693 26.808 135.765 27.128 136.581 27.768C137.413 28.408 137.901 29.312 138.045 30.48H135.597C135.517 29.968 135.277 29.568 134.877 29.28C134.493 28.992 133.973 28.848 133.317 28.848C132.677 28.848 132.181 28.984 131.829 29.256C131.477 29.512 131.301 29.848 131.301 30.264C131.301 30.68 131.541 31.008 132.021 31.248C132.517 31.488 133.165 31.704 133.965 31.896C134.765 32.072 135.501 32.28 136.173 32.52C136.861 32.744 137.413 33.08 137.829 33.528C138.245 33.976 138.453 34.632 138.453 35.496C138.469 36.584 138.045 37.488 137.181 38.208C136.333 38.928 135.173 39.288 133.701 39.288ZM145.917 39C144.749 39 143.821 38.72 143.133 38.16C142.445 37.584 142.101 36.568 142.101 35.112V29.232H140.061V27.096H142.101L142.413 24.072H144.645V27.096H148.005V29.232H144.645V35.112C144.645 35.768 144.781 36.224 145.053 36.48C145.341 36.72 145.829 36.84 146.517 36.84H147.885V39H145.917ZM156.032 39.288C154.896 39.288 153.872 39.032 152.96 38.52C152.064 37.992 151.352 37.264 150.824 36.336C150.296 35.392 150.032 34.296 150.032 33.048C150.032 31.8 150.296 30.712 150.824 29.784C151.368 28.84 152.096 28.112 153.008 27.6C153.92 27.072 154.936 26.808 156.056 26.808C157.192 26.808 158.208 27.072 159.104 27.6C160.016 28.112 160.736 28.84 161.264 29.784C161.808 30.712 162.08 31.8 162.08 33.048C162.08 34.296 161.808 35.392 161.264 36.336C160.736 37.264 160.016 37.992 159.104 38.52C158.192 39.032 157.168 39.288 156.032 39.288ZM156.032 37.104C156.64 37.104 157.2 36.952 157.712 36.648C158.24 36.344 158.664 35.896 158.984 35.304C159.304 34.696 159.464 33.944 159.464 33.048C159.464 32.152 159.304 31.408 158.984 30.816C158.68 30.208 158.264 29.752 157.736 29.448C157.224 29.144 156.664 28.992 156.056 28.992C155.448 28.992 154.88 29.144 154.352 29.448C153.84 29.752 153.424 30.208 153.104 30.816C152.784 31.408 152.624 32.152 152.624 33.048C152.624 33.944 152.784 34.696 153.104 35.304C153.424 35.896 153.84 36.344 154.352 36.648C154.864 36.952 155.424 37.104 156.032 37.104Z" fill="#5D3604"/>
</svg>
